<svg width="55" height="55" viewBox="0 0 55 55" fill="none" xmlns="http://www.w3.org/2000/svg">
<path fill-rule="evenodd" clip-rule="evenodd" d="M0 27.5149C0 12.3341 12.3386 0 27.5187 0C42.6644 0 55 12.3341 55 27.5149C55 42.6644 42.6644 55 27.5187 55C12.3386 55 0 42.6644 0 27.5149ZM1.37485 27.5149C1.37485 41.9065 13.1025 53.6244 27.5187 53.6244C41.9057 53.6244 53.6251 41.9035 53.6251 27.5149C53.6251 13.0995 41.9102 1.3756 27.5187 1.3756C13.098 1.3756 1.37485 13.0935 1.37485 27.5149ZM35.3217 10.226C30.9696 8.28491 22.86 8.09245 16.217 11.051C16.7481 10.6706 17.3024 10.3274 17.8775 10.0201C18.2281 9.83209 18.587 9.65753 18.9518 9.49788C21.0435 8.52363 24.4168 7.57921 28.6212 7.57921C28.8196 7.57921 29.0181 7.5807 29.2173 7.58518C32.8122 7.64933 37.074 8.89065 39.679 11.4673C40.1221 12.0074 40.3787 12.546 40.4734 12.9622C42.5406 14.0126 43.7476 14.9973 44.4137 16.1431C44.7024 16.7459 44.7972 17.38 44.6674 18.1125C45.3455 18.493 45.9333 19.0152 46.3906 19.6448C46.6718 20.1207 46.8949 20.6563 46.9605 21.1412C47.0538 21.7723 47.1164 22.5034 46.4488 23.3643C47.1485 23.7149 47.7184 24.6966 47.7871 25.1143C48.1369 26.6675 47.1164 28.1953 45.8147 29.3754C44.8404 30.2258 43.1179 31.1807 41.288 31.9431C40.2481 32.3758 39.1732 32.7473 38.1818 33.0009C34.3616 33.9677 30.8383 34.5376 27.7544 35.0374C26.4802 35.2448 25.2807 35.4388 24.1662 35.6432C25.1822 35.8864 26.4109 36.1773 28.0296 36.3727C29.1442 36.5085 30.4437 36.598 31.9871 36.598C40.09 36.598 47.2447 32.7771 47.2447 32.7771C47.2447 32.7771 47.0873 33.2575 46.9255 33.7036C41.7767 36.8188 33.6081 38.1213 30.108 37.9617C26.5787 37.8006 23.5918 37.262 20.666 36.3698C19.7723 36.6219 18.8921 36.9188 18.029 37.262C22.4825 39.297 25.8499 39.7446 29.6343 40.0281C33.5097 40.3175 39.9356 39.391 45.335 37.4246C45.2142 37.5469 45.1217 37.6976 45.0314 37.8453C44.9322 38.0065 44.8345 38.1661 44.7024 38.2825C41.9356 39.7446 36.0893 41.2082 33.1314 41.335C30.2042 41.4634 26.6444 41.335 23.5276 40.7606C20.857 40.2235 18.6601 39.391 16.3729 38.378C15.9633 38.6913 15.7724 39.0777 15.6732 39.5238C24.6123 44.1981 32.9367 44.2906 42.4473 41.335L41.5857 42.1631C31.1255 46.4256 22.9547 44.7696 16.625 41.7155C16.4065 41.62 16.1513 41.523 15.9633 41.3977C16.5683 42.4167 21.3963 45.9467 26.8018 46.3928C28.7562 46.5599 30.9375 46.4629 32.9591 46.178C34.7883 45.9199 36.4876 45.5066 37.7707 44.9948L36.1818 45.8199C34.877 46.457 31.4127 47.9236 26.5772 47.6028C20.1252 47.1552 16.4997 44.2921 14.8772 42.8002C14.1148 42.0959 13.7679 41.3037 13.5434 40.3175C12.0797 39.5536 11.1584 38.7554 10.399 37.5484C9.95294 36.8815 10.0447 36.0878 10.1394 35.4149L10.3379 34.8494C9.63365 34.3347 8.90333 33.7946 8.61762 33.2575C7.97757 32.1117 8.36548 31.124 8.80859 30.3601C8.6676 30.1975 8.53109 30.0349 8.40725 29.8722C8.1939 29.5903 8.01785 29.3083 7.92162 29.0263C7.72841 28.5175 7.69857 28.0028 7.75601 27.4329C7.88581 26.481 8.39457 25.5933 9.06223 24.8264C10.4587 23.2031 12.6892 21.932 16.4676 20.6921C19.3486 19.7298 20.8958 19.3971 22.7443 19.0002C23.2852 18.8839 23.8514 18.763 24.484 18.6183C27.7581 17.8604 31.6693 17.6082 34.9412 16.4624C25.8163 14.8735 16.3438 16.3341 8.61762 21.641L9.12489 20.1476C16.0551 15.6329 23.7186 12.9622 36.689 15.2211C37.3888 14.8063 37.8013 14.3915 37.9953 13.5665C34.7502 12.3908 31.2232 11.9775 26.6779 12.0387C22.6063 12.1685 15.2591 13.6888 11.3233 16.0193L12.5258 14.5213C15.2591 12.8936 22.4124 10.7661 27.7902 10.6706C31.5701 10.5766 33.5097 10.7974 38.0259 12.0074C37.6088 11.248 36.689 10.863 35.3217 10.226ZM42.2519 16.8443C42.128 15.9536 41.1105 15.0943 40.2183 14.5213C40.1355 14.8108 39.908 15.139 39.6707 15.43C39.5424 15.5881 39.4111 15.7343 39.2985 15.8582C40.284 16.1148 41.3015 16.4907 42.2519 16.8443ZM37.9005 17.1278C37.2605 17.6381 36.5331 18.0812 35.4485 18.4989C37.2329 18.8108 38.5682 19.321 40.09 19.7373C40.1057 19.7447 40.1236 19.7477 40.1407 19.7462C40.4719 19.7462 41.5611 18.7391 41.7491 18.4631C41.1597 18.205 40.498 17.9454 39.7886 17.7022C39.1881 17.4963 38.554 17.3009 37.9005 17.1278ZM44.7024 21.8037C45.1135 21.0084 44.8598 20.4997 44.0042 19.7671C43.6528 20.1849 43.2709 20.531 42.8583 20.8488C43.1582 20.992 43.4462 21.1159 43.7244 21.2472C44.0639 21.4068 44.3891 21.5769 44.7024 21.8037ZM30.3982 20.1207C26.2012 20.6295 21.5567 21.5157 17.5844 22.6944L17.3725 22.7585C15.4009 23.3583 7.94549 25.6201 10.2096 28.7383L10.2364 28.7085C10.4527 28.4638 12.0245 26.6779 16.9779 25.2382C20.4624 24.2147 24.0349 23.5642 27.6634 22.9032C30.9226 22.3094 34.2273 21.7067 37.5522 20.819C35.5731 20.2923 34.2243 19.9775 32.5369 19.976C31.8916 19.976 31.1971 20.0222 30.3982 20.1207ZM34.9434 23.9685C32.6868 24.5399 27.2158 25.3352 21.3367 26.6063C19.4911 27.0196 14.4341 28.1953 11.9544 30.296C12.352 30.6242 12.6683 30.8062 13.007 30.9838C13.2629 31.118 13.5322 31.2508 13.8597 31.4418C14.8772 30.7719 16.2781 30.1363 18.3483 29.5932C21.6134 28.7264 24.1513 28.3086 27.0263 27.8357L27.8849 27.694C31.0964 27.2076 37.1672 25.9364 40.504 24.7279C41.2716 24.4683 41.9908 24.1461 42.6032 23.7716C42.8815 23.6015 43.1373 23.421 43.3656 23.2315C43.1426 22.9808 40.9807 21.932 40.9165 22.0289C39.5857 22.663 37.6775 23.2971 34.9434 23.9685ZM37.2008 28.2937C30.3982 30.1363 25.4664 30.387 19.8701 31.7626C19.2255 31.9252 18.5713 32.1132 17.932 32.328C17.4665 32.4832 17.0085 32.6533 16.5683 32.8398C17.6135 33.3813 18.7593 33.8603 19.9021 34.3064C22.1908 33.638 23.277 33.3515 26.5772 32.8114L28.4101 32.4817C30.1579 32.1624 32.5988 31.7103 34.5257 31.3194C39.5857 30.2333 46.9926 27.879 45.0217 24.8264C44.9232 24.9099 44.8248 24.986 44.7263 25.0621C44.6017 25.1606 44.4779 25.2591 44.354 25.368C42.8583 26.5063 40.4734 27.4329 37.2008 28.2937ZM11.383 33.3813C11.6031 33.1605 11.8918 32.9681 12.1148 32.7771C11.6031 32.513 11.2524 32.2892 10.8504 32.0326L10.6191 31.8849C10.364 32.4638 10.8772 33.0919 11.383 33.3813ZM17.2942 35.2269C16.3729 34.8136 15.3889 34.4033 14.4341 33.9572C13.9895 34.2437 13.5784 34.5272 13.2591 34.8136C14.0215 35.2597 14.7548 35.67 15.5187 36.0893C16.0805 35.7431 16.675 35.4537 17.2942 35.2269ZM13.5784 38.187C13.6702 37.8662 13.8321 37.6141 14.0551 37.2963C13.8037 37.162 13.5531 37.0292 13.3024 36.8905C13.0115 36.7278 12.722 36.5592 12.4326 36.3698C12.3975 36.977 12.7825 37.5171 13.5784 38.187Z" fill="#476BF0"/>
</svg>
