<svg width="55" height="55" viewBox="0 0 55 55" fill="none" xmlns="http://www.w3.org/2000/svg">
<path d="M48.6092 10.6841C49.8982 12.3731 50.9895 14.208 51.8609 16.152L27.1428 34.6183L16.8125 28.0555V20.1601L27.1428 26.7229L48.6092 10.6841Z" fill="#21A038"/>
<path d="M6.26899 27.4994C6.26899 27.1451 6.27752 26.7931 6.29457 26.4432L0.0340956 26.1323C0.012787 26.5858 7.56549e-06 27.0437 7.56549e-06 27.5058C-0.00265609 31.1162 0.698071 34.6915 2.06201 38.0267C3.42594 41.3621 5.42622 44.3916 7.94811 46.9416L12.3888 42.4433C10.4476 40.4839 8.90755 38.1549 7.8573 35.5903C6.80705 33.0257 6.26728 30.276 6.26899 27.4994Z" fill="url(#paint0_linear_850_19514)"/>
<path d="M27.1377 6.35296C27.4871 6.35296 27.8343 6.36592 28.1795 6.38319L28.4928 0.0363183C28.044 0.014723 27.5922 0.00392665 27.1377 0.00392665C23.5735 -0.00047828 20.0437 0.708655 16.7508 2.09061C13.4579 3.47256 10.4668 5.50012 7.94922 8.05685L12.3899 12.5573C14.3234 10.5893 16.6217 9.02798 19.1527 7.96322C21.6837 6.89846 24.3972 6.35121 27.1377 6.35296Z" fill="url(#paint1_linear_850_19514)"/>
<path d="M27.1385 48.6474C26.7891 48.6474 26.4417 48.6474 26.0945 48.6194L25.7812 54.9641C26.2315 54.9871 26.684 54.9987 27.1385 54.9987C30.7012 55.0024 34.2293 54.2928 37.5205 52.9105C40.8116 51.5281 43.8008 49.5003 46.3164 46.9436L41.8842 42.4453C39.9504 44.4123 37.6523 45.9727 35.1218 47.0371C32.5914 48.1015 29.8783 48.6488 27.1385 48.6474Z" fill="url(#paint2_linear_850_19514)"/>
<path d="M38.8999 10.0419L44.1759 6.10073C39.3536 2.14329 33.3341 -0.0109854 27.1289 4.21271e-05V6.35123C31.3307 6.34595 35.4351 7.63285 38.8999 10.0419Z" fill="url(#paint3_linear_850_19514)"/>
<path d="M54.27 27.5003C54.2733 25.8481 54.1307 24.1988 53.8437 22.5723L48.0031 26.9345C48.0031 27.1225 48.0031 27.3103 48.0031 27.5003C48.0046 30.4552 47.3934 33.3774 46.2093 36.0775C45.0251 38.7776 43.2941 41.1954 41.1289 43.1742L45.3417 47.8929C48.1566 45.3174 50.4061 42.1712 51.9442 38.6583C53.4824 35.1452 54.2747 31.3437 54.27 27.5003Z" fill="#21A038"/>
<path d="M27.1374 48.6478C24.2215 48.6488 21.338 48.0292 18.6733 46.8292C16.0088 45.6291 13.6227 43.8751 11.6694 41.6812L7.01562 45.9484C9.55659 48.8017 12.6609 51.0818 16.1274 52.641C19.5938 54.2001 23.3448 55.0035 27.1374 54.9989V48.6478Z" fill="url(#paint4_linear_850_19514)"/>
<path d="M13.1432 11.825L8.93258 7.10645C6.1168 9.68142 3.86652 12.8275 2.32767 16.3405C0.788834 19.8536 -0.0041954 23.6552 1.66913e-05 27.4989H6.26901C6.26772 24.5442 6.87898 21.622 8.06316 18.9219C9.24736 16.2218 10.9781 13.804 13.1432 11.825Z" fill="url(#paint5_linear_850_19514)"/>
<defs>
<linearGradient id="paint0_linear_850_19514" x1="9.21598" y1="46.1491" x2="2.20212" y2="26.1428" gradientUnits="userSpaceOnUse">
<stop offset="0.14" stop-color="#F1E813"/>
<stop offset="0.3" stop-color="#E6E418"/>
<stop offset="0.58" stop-color="#C9DA26"/>
<stop offset="0.89" stop-color="#A2CC39"/>
</linearGradient>
<linearGradient id="paint1_linear_850_19514" x1="9.73913" y1="9.17981" x2="27.4397" y2="2.52394" gradientUnits="userSpaceOnUse">
<stop offset="0.06" stop-color="#0FA7DF"/>
<stop offset="0.54" stop-color="#0098F8"/>
<stop offset="0.92" stop-color="#0290EA"/>
</linearGradient>
<linearGradient id="paint2_linear_850_19514" x1="25.3679" y1="51.1654" x2="45.3425" y2="46.7129" gradientUnits="userSpaceOnUse">
<stop offset="0.12" stop-color="#A2CC39"/>
<stop offset="0.28" stop-color="#86C239"/>
<stop offset="0.87" stop-color="#219F38"/>
</linearGradient>
<linearGradient id="paint3_linear_850_19514" x1="25.8249" y1="2.12718" x2="42.9195" y2="7.33246" gradientUnits="userSpaceOnUse">
<stop offset="0.06" stop-color="#0290EA"/>
<stop offset="0.79" stop-color="#0C89CA"/>
</linearGradient>
<linearGradient id="paint4_linear_850_19514" x1="8.58819" y1="45.1753" x2="27.2125" y2="52.0434" gradientUnits="userSpaceOnUse">
<stop offset="0.13" stop-color="#F1E813"/>
<stop offset="0.3" stop-color="#EAE616"/>
<stop offset="0.53" stop-color="#D8DF1F"/>
<stop offset="0.8" stop-color="#BAD52D"/>
<stop offset="0.98" stop-color="#A2CC39"/>
</linearGradient>
<linearGradient id="paint5_linear_850_19514" x1="2.33543" y1="28.2677" x2="9.96237" y2="8.69075" gradientUnits="userSpaceOnUse">
<stop offset="0.07" stop-color="#A2CC39"/>
<stop offset="0.26" stop-color="#81C45E"/>
<stop offset="0.92" stop-color="#0FA7DF"/>
</linearGradient>
</defs>
</svg>
