<svg width="55" height="55" viewBox="0 0 55 55" fill="none" xmlns="http://www.w3.org/2000/svg">
<path d="M27.5 0C12.2926 0 0 12.2926 0 27.5C0 42.7074 12.2926 55 27.5 55C42.7074 55 55 42.7074 55 27.5C55 12.2926 42.7074 0 27.5 0ZM23.6982 39.159L21.6705 45.1152C14.0668 42.5806 8.99769 35.3571 8.99769 27.2465C8.99769 19.1359 14.0668 12.0392 21.7972 9.37788L23.8249 15.3341C18.7558 16.9816 15.4608 21.7972 15.4608 27.1198C15.2074 32.6959 18.629 37.5115 23.6982 39.159ZM33.076 45.2419L31.1751 39.159C36.371 37.5115 39.7926 32.6959 39.7926 27.2465C39.7926 21.7972 36.371 17.1083 31.3018 15.4608L33.3295 9.37788C41.0599 11.9124 46.2558 19.1359 46.2558 27.2465C46.2558 35.6106 40.9332 42.8341 33.076 45.2419Z" fill="#00BEF0"/>
</svg>
