<svg width="354" height="272" viewBox="0 0 354 272" fill="none" xmlns="http://www.w3.org/2000/svg">
<path d="M200.62 145.94C190.053 153.308 180.212 161.666 171.23 170.9C162.061 179.602 154.201 189.586 147.892 200.54C141.215 213.519 140.092 229.868 152.822 239.727C163.554 248.026 177.782 245.156 188.826 238.604C199.349 231.306 208.408 222.099 215.534 211.46C223.026 201.67 229.448 191.105 234.69 179.948C239.807 169.09 243.988 157.421 238.996 145.69C237.632 142.209 235.306 139.187 232.29 136.977C229.274 134.768 225.691 133.461 221.961 133.21C215.012 133.377 208.361 136.06 203.241 140.76C181.112 157.237 165.422 180.915 158.874 207.716C158.177 209.42 157.849 211.253 157.911 213.094C157.974 214.935 158.425 216.741 159.236 218.395C160.047 220.048 161.199 221.511 162.616 222.688C164.033 223.864 165.683 224.727 167.458 225.219C169.233 225.712 171.092 225.823 172.912 225.545C174.733 225.267 176.474 224.607 178.021 223.608C179.568 222.608 180.886 221.293 181.888 219.747C182.89 218.202 183.553 216.462 183.834 214.642C184.883 210.418 186.153 206.252 187.641 202.162C188.015 201.164 188.39 200.228 188.826 199.229C187.828 201.663 189.45 197.856 189.513 197.732C190.511 195.61 191.572 193.551 192.633 191.492C196.315 184.103 201.114 177.326 206.86 171.399C209.799 168.377 212.925 165.542 216.22 162.912C214.535 164.285 216.657 162.6 217.093 162.288L219.652 160.479L220.838 159.73C222.148 159.044 222.397 158.856 221.649 159.168C221.649 159.668 217.281 158.669 216.969 158.482C216.657 158.295 214.223 155.237 214.66 156.173C215.097 157.109 213.849 152.866 214.66 155.612C214.66 152.554 215.471 158.357 214.66 155.612C214.66 156.236 214.66 156.86 214.66 157.484C214.66 158.108 213.911 161.165 214.66 157.92C214.66 158.544 214.66 159.168 214.223 159.792C213.786 160.416 213.661 161.602 213.412 162.538C214.223 159.792 212.85 163.786 212.725 164.036C205.102 181.748 194.198 197.86 180.59 211.522L178.967 213.082C178.967 213.082 175.722 215.516 177.969 213.893C176.41 215.043 174.762 216.065 173.039 216.951L170.98 218.012C173.726 216.764 170.418 218.012 169.982 218.012L167.922 218.511C171.105 217.762 167.361 218.511 166.362 218.511C169.857 218.511 167.548 218.511 167.049 218.511L168.422 219.072C167.236 218.324 167.298 218.448 168.422 219.447L167.673 218.698C168.422 219.738 168.546 219.863 168.047 219.072V218.573C168.609 220.008 168.671 219.946 168.047 218.573V219.821C167.985 219.261 167.985 218.696 168.047 218.136C168.047 216.452 167.111 220.57 168.047 217.512C168.484 216.327 168.734 215.141 169.233 213.956C168.359 216.015 169.919 212.895 170.106 212.52C175.344 203.771 181.77 195.791 189.201 188.808C196.43 181.34 204.348 174.57 212.85 168.591C214.69 168.009 216.378 167.028 217.795 165.719C219.212 164.409 220.322 162.803 221.046 161.014C221.77 159.226 222.09 157.3 221.983 155.374C221.877 153.447 221.347 151.568 220.43 149.871C219.513 148.173 218.233 146.699 216.681 145.553C215.129 144.407 213.342 143.619 211.45 143.243C209.558 142.868 207.606 142.915 205.734 143.381C203.861 143.847 202.115 144.721 200.62 145.94Z" fill="#56693E"/>
<path d="M324.047 132.71C316.383 141.234 309.551 150.469 303.642 160.291C297.902 169.963 291.724 181.32 295.281 192.864C299.898 207.59 316.185 210.648 328.602 204.408C337.763 198.865 345.583 191.365 351.503 182.443C358.482 173.642 364.743 164.293 370.223 154.488C372.594 150.245 374.716 145.939 376.463 141.571C379.191 136.312 381.386 130.794 383.015 125.098C385.761 113.117 382.329 99.0145 368.975 95.4577C355.622 91.9009 345.263 102.384 337.463 111.245C321.369 129.138 310.567 151.153 306.263 174.83C305.873 177.946 306.614 181.098 308.352 183.713C310.09 186.327 312.709 188.231 315.732 189.078C318.756 189.924 321.983 189.657 324.826 188.325C327.669 186.993 329.939 184.684 331.223 181.819C332.69 174.167 334.927 166.682 337.9 159.48C337.9 158.669 338.524 157.795 338.898 156.984C338.212 158.606 338.898 156.547 338.898 156.298C339.647 154.675 340.396 153.053 341.27 151.43C343.142 147.749 345.201 144.192 347.51 140.76C351.195 134.964 355.552 129.623 360.489 124.848L362.922 122.477C362.922 122.477 364.732 120.917 363.422 121.853C364.244 121.43 365.037 120.951 365.793 120.418C365.169 121.416 360.863 120.418 361.862 120.73C360.294 120.084 358.98 118.945 358.118 117.485C358.679 118.234 358.742 119.419 358.118 116.923C358.118 116.362 358.118 113.99 358.118 116.362C358.118 116.798 357.806 119.669 358.118 117.797C358.43 115.925 357.431 120.23 357.244 120.792C357.057 121.354 356.62 122.04 356.62 122.851L355.934 124.598C354.873 127.219 352.814 131.65 351.191 134.894C347.47 142.215 343.302 149.301 338.711 156.11C334.517 162.393 329.866 168.358 324.796 173.957C323.548 175.33 322.3 176.765 320.99 178.013C320.433 178.623 319.828 179.186 319.18 179.698C320.678 178.45 319.18 179.698 318.806 179.698C318.431 179.698 314.438 182.693 316.434 181.195C313.938 183.13 316.434 180.446 316.434 181.195C315.124 181.195 314.999 181.195 316.06 181.195C316.744 181.251 317.407 181.464 317.994 181.819C318.613 182.177 319.146 182.667 319.554 183.254C319.929 183.754 320.303 186.499 320.303 185.002C319.617 186.811 320.303 183.504 320.303 185.002C320.99 183.192 320.802 183.005 321.177 182.069C320.49 184.003 321.177 182.069 321.177 181.757C321.177 181.445 322.425 179.261 323.111 178.075C323.798 176.89 325.295 174.206 326.418 172.334C328.852 168.341 331.41 164.41 334.156 160.666C336.902 156.922 339.148 154.426 342.33 150.682C344.785 148.184 346.16 144.823 346.16 141.322C346.16 137.82 344.785 134.459 342.33 131.962C341.102 130.732 339.643 129.756 338.037 129.09C336.431 128.424 334.709 128.081 332.97 128.081C331.232 128.081 329.51 128.424 327.904 129.09C326.298 129.756 324.839 130.732 323.61 131.962L324.047 132.71Z" fill="#56693E"/>
<path d="M272.941 260.818C251.078 276.915 232.82 297.405 219.34 320.972C212.413 333.14 200.62 352.172 215.221 363.591C228.7 374.137 243.925 361.969 254.034 352.921C273.904 334.803 289.487 312.484 299.649 287.588C304.765 275.108 313.127 257.074 301.209 246.217C297.872 243.445 293.757 241.776 289.432 241.441C285.107 241.105 280.784 242.12 277.06 244.345C270.954 247.987 265.766 252.982 261.897 258.946C242.354 284.563 227.561 313.474 218.217 344.309C217.335 347.668 217.809 351.238 219.537 354.25C221.265 357.262 224.108 359.474 227.452 360.409C230.801 361.26 234.349 360.779 237.351 359.069C240.353 357.358 242.576 354.551 243.551 351.236C249.842 330.586 258.843 310.862 270.321 292.58C275.126 283.697 281.061 275.475 287.98 268.119C286.545 269.429 288.604 267.745 289.041 267.495C289.477 267.245 287.356 267.058 289.789 267.183C287.369 267.121 285.014 266.386 282.988 265.061C280.18 262.753 281.74 258.135 280.991 261.38C279.771 266.268 278.207 271.064 276.311 275.732C269.286 293.441 259.094 309.723 246.234 323.78C242.927 327.274 239.557 330.706 235.938 333.951C233.083 337.157 229.655 339.802 225.829 341.751C227.951 340.94 225.829 341.751 225.517 341.751H226.765C230.572 341.751 233.005 344.434 234.129 349.301V349.613C234.129 350.425 234.129 350.05 234.628 348.49C233.941 349.801 235.377 346.993 235.439 346.743C237.748 341.876 240.181 337.133 242.927 332.453C253.919 313.524 268.552 296.96 285.983 283.719C288.989 281.912 291.172 279.005 292.069 275.615C292.966 272.224 292.507 268.618 290.788 265.561C289.031 262.585 286.17 260.424 282.828 259.547C279.486 258.671 275.932 259.15 272.941 260.881V260.818Z" fill="#56693E"/>
<path d="M438.114 157.857C413.222 175.207 390.216 195.117 369.474 217.262C363.522 222.981 358.584 229.67 354.872 237.043C353.157 241.54 353.066 246.496 354.615 251.053C356.165 255.61 359.258 259.483 363.359 262.003C379.333 272.237 395.308 258.821 407.413 249.211C430.303 230.844 450.344 209.184 466.88 184.939C471.632 178.97 475.421 172.296 478.112 165.158C479.6 160.731 479.519 155.926 477.883 151.552C476.247 147.177 473.155 143.498 469.127 141.134C455.336 133.521 438.676 145.814 427.943 153.614C401.485 173.645 381.58 200.165 362.86 226.747C361.129 229.738 360.65 233.291 361.527 236.633C362.403 239.976 364.564 242.837 367.54 244.593C370.551 246.278 374.098 246.732 377.436 245.86C380.775 244.987 383.646 242.856 385.448 239.913C397.974 221.553 412.111 204.345 427.693 188.496C435.113 181.217 443.341 174.811 452.216 169.401C454.421 167.969 456.713 166.676 459.08 165.533H459.704C458.644 165.969 458.831 165.969 460.328 165.533C458.823 165.449 457.411 164.777 456.397 163.661L454.463 162.101C454.463 156.859 454.088 155.736 453.34 158.731C454.088 157.982 452.903 159.667 452.84 159.792C451.25 162.668 449.478 165.44 447.536 168.091C434.875 187.179 419.841 204.582 402.796 219.883C394.899 226.897 386.562 233.4 377.836 239.352C376.463 240.35 376.276 240.475 377.087 240.038C374.092 241.723 376.276 239.165 376.65 240.038C377.024 240.912 378.522 240.038 379.458 243.408C381.205 249.648 377.711 247.901 379.895 246.091C381.476 244.402 382.916 242.587 384.2 240.662C386.447 238.041 388.756 235.421 391.064 232.925C409.432 213.637 429.618 196.167 451.343 180.758C454.256 178.946 456.369 176.091 457.25 172.775C458.132 169.459 457.715 165.931 456.085 162.912C454.317 159.932 451.445 157.77 448.092 156.894C444.74 156.018 441.177 156.498 438.176 158.232L438.114 157.857Z" fill="#56693E"/>
</svg>
