<svg width="42" height="42" viewBox="0 0 42 42" fill="none" xmlns="http://www.w3.org/2000/svg">
<circle cx="21" cy="21" r="21" fill="#363636"/>
<rect width="28.8" height="28.8" transform="translate(6 7.2002)" fill="#363636"/>
<path d="M20.9722 32.089C20.6152 32.2828 20.1843 32.2828 19.8272 32.089L12.6272 28.1804C12.2405 27.9705 11.9997 27.5658 11.9997 27.1258V21.3493C11.9997 20.9117 11.7615 20.5088 11.378 20.2979L9.11939 19.0556C8.28881 18.5988 8.29089 17.4046 9.12307 16.9507L19.8251 11.1132C20.1833 10.9179 20.6162 10.9179 20.9743 11.1132L32.9743 17.6587C33.3598 17.869 33.5997 18.273 33.5997 18.7122V26.3998C33.5997 27.0625 33.0624 27.5998 32.3997 27.5998C31.737 27.5998 31.1997 27.0625 31.1997 26.3998V21.3493C31.1997 20.4366 30.2211 19.858 29.4214 20.2979C29.0379 20.5088 28.7997 20.9117 28.7997 21.3493V27.1258C28.7997 27.5658 28.5589 27.9705 28.1722 28.1804L20.9722 32.089ZM19.8294 22.1318C20.1853 22.324 20.6141 22.324 20.97 22.1318L26.665 19.0556C27.5046 18.6021 27.5046 17.3975 26.665 16.944L20.97 13.8678C20.6141 13.6756 20.1853 13.6756 19.8294 13.8678L14.1344 16.944C13.2948 17.3975 13.2948 18.6021 14.1344 19.0556L19.8294 22.1318ZM19.8295 29.3619C20.1854 29.5541 20.614 29.5541 20.9699 29.3619L25.7699 26.7699C26.1579 26.5604 26.3997 26.155 26.3997 25.714V23.9293C26.3997 23.0166 25.4211 22.438 24.6214 22.8779L20.978 24.8817C20.6179 25.0798 20.1815 25.0798 19.8214 24.8817L16.178 22.8779C15.3783 22.438 14.3997 23.0166 14.3997 23.9293V25.714C14.3997 26.155 14.6415 26.5604 15.0295 26.7699L19.8295 29.3619Z" fill="white"/>
</svg>
