<svg width="42" height="42" viewBox="0 0 42 42" fill="none" xmlns="http://www.w3.org/2000/svg">
<circle cx="21" cy="21" r="21" fill="#363636"/>
<path d="M26.6875 10.8438H15.3125C14.3428 10.8438 13.4128 11.229 12.7271 11.9146C12.0415 12.6003 11.6562 13.5303 11.6562 14.5V29.125C11.6562 29.6637 11.8703 30.1804 12.2512 30.5613C12.6321 30.9422 13.1488 31.1562 13.6875 31.1562H16.5312C17.07 31.1562 17.5866 30.9422 17.9676 30.5613C18.3485 30.1804 18.5625 29.6637 18.5625 29.125V27.5H23.4375V29.125C23.4375 29.6637 23.6515 30.1804 24.0324 30.5613C24.4134 30.9422 24.93 31.1562 25.4688 31.1562H28.3125C28.8512 31.1562 29.3679 30.9422 29.7488 30.5613C30.1297 30.1804 30.3438 29.6637 30.3438 29.125V14.5C30.3438 13.5303 29.9585 12.6003 29.2729 11.9146C28.5872 11.229 27.6572 10.8438 26.6875 10.8438ZM14.0938 25.0625V19.375H27.9062V25.0625H14.0938ZM15.3125 13.2812H26.6875C27.0107 13.2812 27.3207 13.4097 27.5493 13.6382C27.7778 13.8668 27.9062 14.1768 27.9062 14.5V16.9375H14.0938V14.5C14.0938 14.1768 14.2222 13.8668 14.4507 13.6382C14.6793 13.4097 14.9893 13.2812 15.3125 13.2812ZM16.125 28.7188H14.0938V27.5H16.125V28.7188ZM25.875 28.7188V27.5H27.9062V28.7188H25.875ZM18.9688 22.2188C18.9688 22.5401 18.8734 22.8543 18.6949 23.1216C18.5163 23.3888 18.2625 23.5971 17.9656 23.7201C17.6687 23.843 17.3419 23.8752 17.0267 23.8125C16.7115 23.7498 16.422 23.5951 16.1947 23.3678C15.9674 23.1405 15.8127 22.851 15.75 22.5358C15.6873 22.2206 15.7195 21.8938 15.8424 21.5969C15.9654 21.3 16.1737 21.0462 16.4409 20.8676C16.7082 20.6891 17.0224 20.5938 17.3438 20.5938C17.7747 20.5938 18.1881 20.765 18.4928 21.0697C18.7975 21.3744 18.9688 21.7878 18.9688 22.2188ZM26.2812 22.2188C26.2812 22.5401 26.1859 22.8543 26.0074 23.1216C25.8288 23.3888 25.575 23.5971 25.2781 23.7201C24.9812 23.843 24.6544 23.8752 24.3392 23.8125C24.024 23.7498 23.7345 23.5951 23.5072 23.3678C23.2799 23.1405 23.1252 22.851 23.0625 22.5358C22.9998 22.2206 23.032 21.8938 23.1549 21.5969C23.2779 21.3 23.4862 21.0462 23.7534 20.8676C24.0207 20.6891 24.3349 20.5938 24.6562 20.5938C25.0872 20.5938 25.5006 20.765 25.8053 21.0697C26.11 21.3744 26.2812 21.7878 26.2812 22.2188ZM34 16.125V18.5625C34 18.8857 33.8716 19.1957 33.643 19.4243C33.4145 19.6528 33.1045 19.7812 32.7812 19.7812C32.458 19.7812 32.148 19.6528 31.9195 19.4243C31.6909 19.1957 31.5625 18.8857 31.5625 18.5625V16.125C31.5625 15.8018 31.6909 15.4918 31.9195 15.2632C32.148 15.0347 32.458 14.9062 32.7812 14.9062C33.1045 14.9062 33.4145 15.0347 33.643 15.2632C33.8716 15.4918 34 15.8018 34 16.125ZM10.4375 16.125V18.5625C10.4375 18.8857 10.3091 19.1957 10.0805 19.4243C9.85198 19.6528 9.54198 19.7812 9.21875 19.7812C8.89552 19.7812 8.58552 19.6528 8.35696 19.4243C8.1284 19.1957 8 18.8857 8 18.5625V16.125C8 15.8018 8.1284 15.4918 8.35696 15.2632C8.58552 15.0347 8.89552 14.9062 9.21875 14.9062C9.54198 14.9062 9.85198 15.0347 10.0805 15.2632C10.3091 15.4918 10.4375 15.8018 10.4375 16.125Z" fill="#56693E"/>
</svg>
