<svg width="42" height="58" viewBox="0 0 42 58" fill="none" xmlns="http://www.w3.org/2000/svg">
<path d="M42 21C42 23.9061 41.4097 26.6743 40.3424 29.1913C37.1504 36.7194 29.6919 42 21 42C9.40202 42 0 32.598 0 21C0 9.40202 9.40202 0 21 0C32.598 0 42 9.40202 42 21Z" fill="#748D55"/>
<path d="M40.3424 29.1913C37.1504 36.7194 29.6919 42 21 42C9.40202 42 0 32.598 0 21C0 33.4857 7.98176 42.3797 21.9521 57.9466L22 58C27.2505 51.0914 36.4415 41.7544 40.3424 29.1913Z" fill="#748D55"/>
<rect x="6" y="6" width="30" height="30" rx="15" fill="white"/>
<path d="M21.5 12C21.5 13.3333 18.8333 16 16.7001 16M21.5 12V16.5M21.5 12C21.5 13.3333 24.1667 16 26.2999 16M21.5 30V21.75M21.5 16.5C20.6111 18.1667 18.8332 21.3333 14.5666 21.3333M21.5 16.5V21.75M21.5 16.5C22.3889 18.1667 24.1668 21.3333 28.4334 21.3333M21.5 21.75C20.4333 23.6389 17.3399 27 13.5 27M21.5 21.75C22.5667 23.6389 25.6601 27 29.5 27" stroke="#56693E" stroke-width="2"/>
</svg>
