<svg width="42" height="42" viewBox="0 0 42 42" fill="none" xmlns="http://www.w3.org/2000/svg">
<circle cx="21" cy="21" r="21" fill="#363636"/>
<g clip-path="url(#clip0_2313_19616)">
<path d="M32.3694 18.244C31.9005 18.1481 31.4744 17.8677 31.2649 17.4374C30.5308 15.9293 29.4968 14.5971 28.2285 13.5309C27.2035 12.6692 26.0474 11.9997 24.8121 11.5476C24.0331 11.2624 23.6249 10.3385 24.0522 9.62739L24.3456 9.13895C24.6259 8.67238 24.4864 8.06762 24.0301 7.77091C23.5503 7.45892 22.9073 7.60718 22.6126 8.09781L21.2931 10.2941C21.0772 10.6534 20.6891 10.8691 20.2708 10.8967C18.2605 11.0293 16.3147 11.7092 14.6307 12.8739C12.9713 14.0215 11.6306 15.5952 10.7349 17.4368C10.5255 17.8674 10.0993 18.1481 9.63023 18.2441C8.74572 18.4251 7.92735 18.88 7.28753 19.5584C6.4623 20.4334 6 21.6103 6 22.8361C6 24.062 6.4623 25.2388 7.28753 26.1138C7.92736 26.7922 8.74575 27.2472 9.63027 27.4282C10.0993 27.5242 10.5256 27.8048 10.735 28.2354C11.6349 30.0855 12.9838 31.6651 14.6535 32.814C16.5359 34.1093 18.743 34.8 21 34.8C23.257 34.8 25.4641 34.1093 27.3465 32.814C29.0162 31.6651 30.3651 30.0855 31.265 28.2354C31.4744 27.8048 31.9007 27.5242 32.3697 27.4282C33.2543 27.2472 34.0726 26.7922 34.7125 26.1138C35.5377 25.2388 36 24.062 36 22.8361C36 21.6103 35.5377 20.4334 34.7125 19.5584C34.0726 18.8799 33.254 18.425 32.3694 18.244ZM33.2839 24.6574C32.8265 25.1441 32.2031 25.4235 31.5489 25.4351L31.0421 25.4451C30.5635 25.4546 30.1363 25.7476 29.9551 26.1907L29.7465 26.7009C29.0169 28.4861 27.7987 30.0087 26.2434 31.0789C24.6882 32.1492 22.8647 32.7198 21 32.7198C19.1353 32.7198 17.3119 32.1492 15.7566 31.0789C14.2014 30.0087 12.9831 28.4861 12.2536 26.7009L12.0449 26.1907C11.8638 25.7476 11.4365 25.4546 10.9579 25.4451L10.4511 25.4351C9.79666 25.4223 9.17314 25.1429 8.71464 24.6569C8.25613 24.1709 7.99926 23.5171 7.99926 22.8361C7.99926 22.1552 8.25613 21.5014 8.71464 21.0154C9.17314 20.5293 9.79666 20.2499 10.4511 20.2372L10.9579 20.2272C11.4365 20.2177 11.8638 19.9247 12.0449 19.4816L12.2536 18.9714C12.9832 17.1861 14.2014 15.6636 15.7566 14.5934C17.3119 13.5232 19.1354 12.9526 21 12.9526C22.8647 12.9526 24.6882 13.5232 26.2434 14.5934C27.7986 15.6636 29.0169 17.1861 29.7465 18.9714L29.9551 19.4815C30.1363 19.9247 30.5635 20.2177 31.0421 20.2272L31.5489 20.2372C32.037 20.2468 32.5117 20.405 32.9144 20.6922C33.3171 20.9794 33.6301 21.383 33.8146 21.8533C33.9992 22.3235 34.0473 22.8397 33.953 23.338C33.8586 23.8364 33.626 24.295 33.2839 24.6574Z" fill="white" stroke="white" stroke-width="0.1"/>
<path d="M15.5996 21.5999C15.5996 20.9372 16.1369 20.3999 16.7996 20.3999H16.8542C17.5169 20.3999 18.0542 20.9372 18.0542 21.5999V21.7262C18.0542 22.389 17.5169 22.9262 16.8542 22.9262H16.7996C16.1369 22.9262 15.5996 22.389 15.5996 21.7262V21.5999ZM23.9451 21.5999C23.9451 20.9372 24.4823 20.3999 25.1451 20.3999H25.1996C25.8624 20.3999 26.3996 20.9372 26.3996 21.5999V21.7262C26.3996 22.389 25.8624 22.9262 25.1996 22.9262H25.1451C24.4823 22.9262 23.9451 22.389 23.9451 21.7262V21.5999ZM20.9996 29.9999C21.6443 29.9999 22.2826 29.8692 22.8782 29.6153C23.4738 29.3614 24.015 28.9892 24.4709 28.52C24.9267 28.0508 25.2883 27.4938 25.535 26.8808C25.6324 26.6389 25.7111 26.39 25.7708 26.1366C25.9226 25.4915 25.3714 24.9473 24.7087 24.9473H17.2905C16.6278 24.9473 16.0767 25.4915 16.2285 26.1366C16.2881 26.39 16.3668 26.6389 16.4642 26.8808C16.7109 27.4938 17.0725 28.0508 17.5284 28.52C18.449 29.4676 19.6976 29.9999 20.9996 29.9999Z" fill="white"/>
</g>
<defs>
<clipPath id="clip0_2313_19616">
<rect width="30" height="27.6" fill="white" transform="translate(6 7.19995)"/>
</clipPath>
</defs>
</svg>
