<svg width="42" height="42" viewBox="0 0 42 42" fill="none" xmlns="http://www.w3.org/2000/svg">
<circle cx="21" cy="21" r="21" fill="#363636"/>
<path d="M20.9717 32.0893C20.6147 32.2831 20.1838 32.2831 19.8267 32.0893L12.6267 28.1807C12.24 27.9708 11.9992 27.5661 11.9992 27.1261V21.3496C11.9992 20.9119 11.761 20.509 11.3775 20.2981L9.1189 19.0559C8.28832 18.5991 8.29041 17.4049 9.12258 16.9509L19.8246 11.1135C20.1828 10.9181 20.6157 10.9181 20.9738 11.1135L32.9738 17.6589C33.3594 17.8692 33.5992 18.2733 33.5992 18.7124V26.4001C33.5992 27.0628 33.062 27.6 32.3992 27.6C31.7365 27.6 31.1992 27.0628 31.1992 26.4V21.3496C31.1992 20.4369 30.2207 19.8583 29.4209 20.2981C29.0375 20.509 28.7992 20.9119 28.7992 21.3496V27.1261C28.7992 27.5661 28.5584 27.9708 28.1717 28.1807L20.9717 32.0893ZM19.8289 22.132C20.1848 22.3242 20.6136 22.3242 20.9695 22.132L26.6645 19.0559C27.5041 18.6024 27.5041 17.3977 26.6645 16.9442L20.9695 13.8681C20.6136 13.6759 20.1848 13.6759 19.8289 13.8681L14.1339 16.9442C13.2943 17.3977 13.2943 18.6024 14.1339 19.0559L19.8289 22.132ZM19.829 29.3622C20.1849 29.5543 20.6136 29.5543 20.9694 29.3622L25.7694 26.7702C26.1574 26.5606 26.3992 26.1552 26.3992 25.7143V23.9296C26.3992 23.0169 25.4207 22.4383 24.6209 22.8781L20.9775 24.882C20.6174 25.08 20.181 25.08 19.8209 24.882L16.1775 22.8781C15.3778 22.4383 14.3992 23.0169 14.3992 23.9296V25.7143C14.3992 26.1552 14.641 26.5606 15.029 26.7702L19.829 29.3622Z" fill="white"/>
</svg>
