<svg width="42" height="42" viewBox="0 0 42 42" fill="none" xmlns="http://www.w3.org/2000/svg">
<circle cx="21" cy="21" r="21" fill="#363636"/>
<path d="M16.3996 31.3998C17.3937 31.3998 18.1996 30.5939 18.1996 29.5998C18.1996 28.6057 17.3937 27.7998 16.3996 27.7998C15.4055 27.7998 14.5996 28.6057 14.5996 29.5998C14.5996 30.5939 15.4055 31.3998 16.3996 31.3998Z" fill="white"/>
<path d="M27.2004 31.3998C28.1945 31.3998 29.0004 30.5939 29.0004 29.5998C29.0004 28.6057 28.1945 27.7998 27.2004 27.7998C26.2063 27.7998 25.4004 28.6057 25.4004 29.5998C25.4004 30.5939 26.2063 31.3998 27.2004 31.3998Z" fill="white"/>
<path d="M11 13.3999H13.4L14.12 16.9999M14.12 16.9999L15.8 25.3999H27.8L30.2 16.9999H14.12Z" stroke="white" stroke-width="2.4" stroke-linecap="round" stroke-linejoin="round"/>
</svg>
