<svg width="42" height="42" viewBox="0 0 42 42" fill="none" xmlns="http://www.w3.org/2000/svg">
<circle cx="21" cy="21" r="21" fill="#363636"/>
<path d="M28.5789 18H13.4211C12.6362 18 12 18.6199 12 19.3846V28.6154C12 29.3801 12.6362 30 13.4211 30H28.5789C29.3638 30 30 29.3801 30 28.6154V19.3846C30 18.6199 29.3638 18 28.5789 18Z" stroke="white" stroke-width="2.4" stroke-linejoin="round"/>
<path d="M18.9008 14H23.1008V12H18.9008V14ZM23.5208 14.5V18H25.2008V14.5H23.5208ZM18.4808 18V14.5H16.8008V18H18.4808ZM23.1008 14C23.2122 14 23.319 14.0527 23.3978 14.1464C23.4765 14.2402 23.5208 14.3674 23.5208 14.5H25.2008C25.2008 13.837 24.9795 13.2011 24.5857 12.7322C24.1919 12.2634 23.6577 12 23.1008 12V14ZM18.9008 12C18.3438 12 17.8097 12.2634 17.4159 12.7322C17.022 13.2011 16.8008 13.837 16.8008 14.5H18.4808C18.4808 14.3674 18.525 14.2402 18.6038 14.1464C18.6826 14.0527 18.7894 14 18.9008 14V12Z" fill="white"/>
<path d="M18 24.0001H24M21 21.6001V26.4001" stroke="white" stroke-width="2.4" stroke-linecap="round" stroke-linejoin="round"/>
</svg>
