<svg width="42" height="42" viewBox="0 0 42 42" fill="none" xmlns="http://www.w3.org/2000/svg">
<circle cx="21" cy="21" r="21" fill="#363636"/>
<path d="M20.3992 28.7999C24.3757 28.7999 27.5992 25.5764 27.5992 21.5999C27.5992 17.6235 24.3757 14.3999 20.3992 14.3999C16.4228 14.3999 13.1992 17.6235 13.1992 21.5999C13.1992 25.5764 16.4228 28.7999 20.3992 28.7999Z" stroke="white" stroke-width="2.4" stroke-linecap="round" stroke-linejoin="round"/>
<path d="M20.4 14.3999C21.7255 14.3999 22.8 13.3253 22.8 11.9999C22.8 10.6744 21.7255 9.59985 20.4 9.59985C19.0745 9.59985 18 10.6744 18 11.9999C18 13.3253 19.0745 14.3999 20.4 14.3999Z" stroke="white" stroke-width="2.4" stroke-linecap="round" stroke-linejoin="round"/>
<path d="M28.8004 19.1999C30.1259 19.1999 31.2004 18.1254 31.2004 16.7999C31.2004 15.4744 30.1259 14.3999 28.8004 14.3999C27.4749 14.3999 26.4004 15.4744 26.4004 16.7999C26.4004 18.1254 27.4749 19.1999 28.8004 19.1999Z" stroke="white" stroke-width="2.4" stroke-linecap="round" stroke-linejoin="round"/>
<path d="M11.9996 19.1999C13.3251 19.1999 14.3996 18.1254 14.3996 16.7999C14.3996 15.4744 13.3251 14.3999 11.9996 14.3999C10.6741 14.3999 9.59961 15.4744 9.59961 16.7999C9.59961 18.1254 10.6741 19.1999 11.9996 19.1999Z" stroke="white" stroke-width="2.4" stroke-linecap="round" stroke-linejoin="round"/>
<path d="M11.9996 28.7998C13.3251 28.7998 14.3996 27.7252 14.3996 26.3998C14.3996 25.0743 13.3251 23.9998 11.9996 23.9998C10.6741 23.9998 9.59961 25.0743 9.59961 26.3998C9.59961 27.7252 10.6741 28.7998 11.9996 28.7998Z" stroke="white" stroke-width="2.4" stroke-linecap="round" stroke-linejoin="round"/>
<path d="M28.8004 28.7998C30.1259 28.7998 31.2004 27.7252 31.2004 26.3998C31.2004 25.0743 30.1259 23.9998 28.8004 23.9998C27.4749 23.9998 26.4004 25.0743 26.4004 26.3998C26.4004 27.7252 27.4749 28.7998 28.8004 28.7998Z" stroke="white" stroke-width="2.4" stroke-linecap="round" stroke-linejoin="round"/>
<path d="M15.5996 33.5999L20.3996 21.5999L25.1996 33.5999" stroke="white" stroke-width="2.4" stroke-linecap="round" stroke-linejoin="round"/>
</svg>
