<svg width="55" height="55" viewBox="0 0 55 55" fill="none" xmlns="http://www.w3.org/2000/svg">
<path d="M45.9431 0H9.15052C4.09867 0 0 4.0917 0 9.13495V45.8651C0 50.9083 4.09867 55 9.15052 55H45.8479C50.8997 55 54.9983 50.9083 54.9983 45.8651V9.13495C55.0936 4.0917 50.995 0 45.9431 0ZM52.2342 44.9135C52.1389 45.0087 51.9482 45.1039 51.8529 45.0087C44.7994 40.7267 36.4114 38.2526 27.5469 38.2526C18.6823 38.2526 10.2943 40.7267 3.24081 45.0087C3.14549 45.1039 2.95485 45.0087 2.85953 44.9135C2.76422 44.7232 2.85953 44.628 2.95485 44.5328C9.43646 39.5847 14.965 33.3046 19.2543 25.8823C23.5434 18.4602 26.2125 10.4671 27.2609 2.47405C27.2609 2.37889 27.3562 2.18859 27.5469 2.18859C27.7375 2.18859 27.8328 2.28374 27.8328 2.47405C28.8813 10.4671 31.5502 18.4602 35.8395 25.8823C40.1288 33.3046 45.7526 39.5847 52.1389 44.4377C52.3295 44.628 52.3295 44.7232 52.2342 44.9135Z" fill="#FE5000"/>
</svg>
