<svg width="129" height="131" viewBox="0 0 129 131" fill="none" xmlns="http://www.w3.org/2000/svg">
<path d="M87.04 32.3894L84.7549 32.3894C84.667 31.9011 84.5034 31.4715 84.2641 31.1004C84.0249 30.7293 83.7319 30.4143 83.3852 30.1555C83.0385 29.8968 82.6504 29.7014 82.2207 29.5696C81.7959 29.4378 81.3442 29.3719 80.8657 29.3719C80.0014 29.3719 79.2275 29.5891 78.5439 30.0237C77.8652 30.4583 77.3281 31.0955 76.9326 31.9353C76.542 32.7752 76.3467 33.8006 76.3467 35.0115C76.3467 36.2322 76.542 37.2625 76.9326 38.1023C77.3281 38.9422 77.8677 39.5769 78.5513 40.0066C79.2348 40.4363 80.0039 40.6511 80.8584 40.6511C81.332 40.6511 81.7812 40.5877 82.206 40.4607C82.6357 40.3289 83.0239 40.136 83.3706 39.8821C83.7173 39.6282 84.0102 39.3181 84.2495 38.9519C84.4936 38.5808 84.6621 38.156 84.7549 37.6775L87.04 37.6848C86.9179 38.4221 86.6811 39.1008 86.3296 39.721C85.9829 40.3362 85.5361 40.8684 84.9892 41.3176C84.4472 41.762 83.8271 42.1062 83.1289 42.3504C82.4306 42.5945 81.6689 42.7166 80.8437 42.7166C79.5449 42.7166 78.3877 42.4089 77.3721 41.7937C76.3564 41.1736 75.5557 40.2874 74.9697 39.135C74.3887 37.9827 74.0981 36.6082 74.0981 35.0115C74.0981 33.4099 74.3911 32.0354 74.977 30.888C75.563 29.7356 76.3638 28.8518 77.3794 28.2366C78.395 27.6165 79.5498 27.3064 80.8437 27.3064C81.6396 27.3064 82.3818 27.4212 83.0703 27.6507C83.7636 27.8753 84.3862 28.2073 84.938 28.6468C85.4897 29.0813 85.9463 29.6136 86.3076 30.2434C86.6689 30.8684 86.9131 31.5838 87.04 32.3894Z" fill="#CBCBCB"/>
<path d="M88.814 89.6441L88.814 74.6441L94.3071 74.6441C95.3716 74.6441 96.2529 74.8199 96.9511 75.1714C97.6494 75.5181 98.1718 75.9893 98.5185 76.585C98.8652 77.1758 99.0385 77.8423 99.0385 78.5845C99.0385 79.2095 98.9238 79.7368 98.6943 80.1665C98.4648 80.5913 98.1572 80.9331 97.7715 81.1919C97.3906 81.4458 96.9707 81.6314 96.5117 81.7486L96.5117 81.895C97.0097 81.9195 97.4956 82.0806 97.9692 82.3784C98.4477 82.6714 98.8432 83.0889 99.1557 83.6309C99.4682 84.1729 99.6245 84.832 99.6245 85.6084C99.6245 86.375 99.4438 87.0635 99.0825 87.6738C98.726 88.2793 98.1743 88.7603 97.4272 89.1167C96.6802 89.4683 95.7256 89.6441 94.5635 89.6441L88.814 89.6441ZM91.0771 87.7031L94.3437 87.7031C95.4277 87.7031 96.2041 87.4932 96.6728 87.0733C97.1416 86.6533 97.376 86.1284 97.376 85.4986C97.376 85.0249 97.2563 84.5903 97.0171 84.1948C96.7778 83.7993 96.436 83.4844 95.9917 83.25C95.5522 83.0156 95.0298 82.8985 94.4243 82.8985L91.0771 82.8985L91.0771 87.7031ZM91.0771 81.1333L94.1094 81.1333C94.6172 81.1333 95.0737 81.0357 95.479 80.8404C95.8891 80.645 96.2138 80.3716 96.4531 80.02C96.6972 79.6636 96.8193 79.2437 96.8193 78.7603C96.8193 78.1402 96.602 77.6201 96.1675 77.2002C95.7329 76.7803 95.0664 76.5703 94.168 76.5703L91.0771 76.5703L91.0771 81.1333Z" fill="#CBCBCB"/>
<path d="M34.7334 56.9263C33.7275 56.9263 32.8291 56.7529 32.0381 56.4063C31.2519 56.0596 30.6294 55.5786 30.1704 54.9634C29.7163 54.3433 29.4722 53.6255 29.438 52.8101L31.7378 52.8101C31.7671 53.2544 31.916 53.6402 32.1846 53.9673C32.458 54.2896 32.8144 54.5386 33.2539 54.7144C33.6933 54.8901 34.1816 54.978 34.7187 54.978C35.3096 54.978 35.832 54.8755 36.2861 54.6704C36.7451 54.4653 37.104 54.1797 37.3628 53.8135C37.6216 53.4424 37.751 53.0152 37.751 52.5318C37.751 52.0288 37.6216 51.5869 37.3628 51.2061C37.1089 50.8203 36.7353 50.5176 36.2422 50.2979C35.7539 50.0781 35.1631 49.9683 34.4697 49.9683L33.2026 49.9683L33.2026 48.1226L34.4697 48.1226C35.0263 48.1226 35.5146 48.0225 35.9346 47.8223C36.3594 47.6221 36.6914 47.3438 36.9306 46.9873C37.1699 46.626 37.2895 46.2036 37.2895 45.7202C37.2895 45.2564 37.1845 44.8535 36.9746 44.5117C36.7695 44.1651 36.4765 43.8941 36.0957 43.6988C35.7197 43.5034 35.2754 43.4058 34.7627 43.4058C34.2744 43.4058 33.8179 43.4961 33.3931 43.6768C32.9731 43.8526 32.6313 44.1065 32.3677 44.4385C32.104 44.7657 31.9624 45.1587 31.9429 45.6177L29.7529 45.6177C29.7773 44.8072 30.0166 44.0943 30.4707 43.479C30.9297 42.8638 31.5351 42.3828 32.2871 42.0362C33.0391 41.6895 33.874 41.5161 34.792 41.5161C35.7539 41.5161 36.584 41.7041 37.2822 42.0801C37.9853 42.4512 38.5273 42.9468 38.9082 43.5669C39.2939 44.187 39.4843 44.8658 39.4795 45.6031C39.4843 46.4429 39.25 47.1558 38.7763 47.7417C38.3076 48.3277 37.6826 48.7207 36.9013 48.9209L36.9013 49.0381C37.8974 49.1895 38.6689 49.585 39.2158 50.2246C39.7675 50.8643 40.041 51.6577 40.0361 52.605C40.041 53.4302 39.8115 54.1699 39.3476 54.8242C38.8886 55.4785 38.2612 55.9937 37.4653 56.3696C36.6694 56.7407 35.7588 56.9263 34.7334 56.9263Z" fill="#CBCBCB"/>
<path d="M40.6748 86.409L40.6748 101.409L38.4116 101.409L38.4116 86.409L40.6748 86.409ZM43.9341 93.1399L43.9341 95.0369L39.2832 95.0369L39.2832 93.1399L43.9341 93.1399ZM56.7661 93.909C56.7661 95.5105 56.4731 96.8875 55.8872 98.0398C55.3012 99.1873 54.498 100.071 53.4775 100.691C52.4619 101.306 51.3071 101.614 50.0131 101.614C48.7143 101.614 47.5547 101.306 46.5342 100.691C45.5185 100.071 44.7178 99.1848 44.1318 98.0325C43.5459 96.8801 43.2529 95.5056 43.2529 93.909C43.2529 92.3074 43.5459 90.9329 44.1318 89.7854C44.7178 88.6331 45.5185 87.7493 46.5342 87.1341C47.5547 86.5139 48.7143 86.2039 50.0131 86.2039C51.3071 86.2039 52.4619 86.5139 53.4775 87.1341C54.498 87.7493 55.3012 88.6331 55.8872 89.7854C56.4731 90.9329 56.7661 92.3074 56.7661 93.909ZM54.5249 93.909C54.5249 92.6883 54.3271 91.6604 53.9316 90.8255C53.541 89.9856 53.0039 89.3509 52.3203 88.9212C51.6416 88.4866 50.8725 88.2693 50.0131 88.2693C49.1489 88.2693 48.3774 88.4866 47.6987 88.9212C47.02 89.3509 46.4829 89.9856 46.0874 90.8255C45.6968 91.6604 45.5014 92.6883 45.5014 93.909C45.5014 95.1297 45.6968 96.1599 46.0874 96.9998C46.4829 97.8347 47.02 98.4695 47.6987 98.9041C48.3774 99.3338 49.1489 99.5486 50.0131 99.5486C50.8725 99.5486 51.6416 99.3338 52.3203 98.9041C53.0039 98.4695 53.541 97.8347 53.9316 96.9998C54.3271 96.1599 54.5249 95.1297 54.5249 93.909Z" fill="#F8BD4A"/>
<path opacity="0.4" d="M63.5824 36.0749C57.5797 36.0732 51.6823 37.9467 46.7732 41.4443M88.0865 49.7258C91.2472 54.829 92.7581 60.8295 92.3678 66.8445" stroke="#CBCBCB" stroke-width="2.0625" stroke-linecap="round"/>
<path opacity="0.4" d="M80.3232 88.4657C75.414 91.9633 69.5167 93.8368 63.514 93.8351M34.7285 63.0654C34.3383 69.0805 35.8491 75.081 39.0099 80.1842" stroke="#F8BD4A" stroke-width="2.0625" stroke-linecap="round"/>
<path d="M69.1862 53.7566C69.7738 53.1437 70.7925 53.7112 70.5806 54.5334L68.1143 64.1048C67.9795 64.6282 67.3861 64.8827 66.9139 64.6196L62.5398 62.1829C62.0677 61.9198 61.9718 61.2814 62.3458 60.8912L69.1862 53.7566Z" fill="#CBCBCB"/>
<path d="M57.8736 74.0633C57.6617 74.8855 58.6804 75.453 59.268 74.8402L66.1084 67.7056C66.4825 67.3154 66.3866 66.6769 65.9144 66.4139L61.5403 63.9771C61.0681 63.7141 60.4747 63.9686 60.3399 64.492L57.8736 74.0633Z" fill="#F8BD4A"/>
</svg>
