<svg width="413" height="261" viewBox="0 0 413 261" fill="none" xmlns="http://www.w3.org/2000/svg">
<path d="M185.496 280.4C185.496 280.4 -26.3001 356.32 13.6359 392.98C53.5719 429.64 211.288 301.2 211.288 301.2C211.288 301.2 107.86 432.812 158.664 455.224C209.468 477.636 223.56 312.484 223.56 312.484C223.56 312.484 174.524 509.148 239.16 490.948C303.796 472.748 247.48 301.2 247.48 301.2C247.48 301.2 323.66 462.4 368.536 442.536C413.412 422.672 273.532 283.416 273.532 283.416C273.532 283.416 412.32 405.668 450.332 356.84C488.344 308.012 273.532 256.688 273.532 256.688C273.532 256.688 464.424 308.688 478.048 256.688C491.672 204.688 282.268 245.924 282.268 245.924C282.268 245.924 493.232 180.248 458.028 136.308C422.824 92.3677 266.98 231.156 266.98 231.156C266.98 231.156 443.78 100.324 411.696 65.1717C379.612 30.0197 254.5 221.64 254.5 221.64C254.5 221.64 376.492 21.1797 322.932 9.99969C269.372 -1.18031 230.476 225.02 230.476 225.02C230.476 225.02 262.456 -23.5923 194.804 2.82369C127.152 29.2397 214.252 231.156 214.252 231.156C214.252 231.156 110.356 30.7997 67.2999 58.0477C24.2439 85.2957 202.76 250.708 202.76 250.708C202.76 250.708 47.1759 105.108 5.6279 135.476C-35.9201 165.844 192.828 255.7 192.828 255.7C192.828 255.7 -9.9721 205.676 -18.6041 260.9C-27.2361 316.124 185.496 280.4 185.496 280.4Z" fill="white"/>
<path d="M224.392 246.703C224.392 246.703 200.056 187.423 229.592 180.247C259.128 173.071 237.132 251.539 236.56 248.419C235.988 245.299 250.444 189.555 287.104 199.279C323.764 209.003 244.1 253.255 244.1 253.255C244.1 253.255 279.928 227.619 306.5 245.923C333.072 264.227 247.22 261.887 247.22 261.887C247.22 261.887 296.828 258.091 300.312 288.719C303.796 319.347 245.244 266.255 245.244 266.255C245.244 266.255 288.664 316.643 260.844 330.007C233.024 343.371 235.468 269.479 235.468 269.479C235.468 269.479 239.68 324.495 211.34 320.699C183 316.903 227.876 269.479 227.876 269.479C227.876 269.479 182.012 307.855 177.332 281.595C172.652 255.335 218.932 263.031 218.932 263.031C218.932 263.031 152.008 247.015 170.364 220.027C188.72 193.039 224.392 246.703 224.392 246.703Z" fill="#56693E"/>
</svg>
