<svg width="413" height="371" viewBox="0 0 413 371" fill="none" xmlns="http://www.w3.org/2000/svg">
<path d="M362.08 289.12C298.08 323.84 416.56 538.48 459.28 611.28C416.021 569.583 375.257 525.373 337.2 478.88C327.04 406.88 276.88 76.8002 210.16 120.88C152.72 158.88 259.28 357.44 312 447.84C244.24 361.622 181.651 271.464 124.56 177.84C123.84 176 45.9998 -35.9998 -3.76024 6.40015C-53.5202 48.8002 111.36 192 111.36 192V191.52C131.12 228 160.48 281.04 198 340.96C138.72 273.6 26.3998 161.52 -31.8402 202.16C-109.92 256.64 149.44 375.2 227.68 386.72C257.76 432.16 291.68 480 329.52 526.72C259.92 477.36 101.92 374.72 72.1598 437.28C34.7198 516 193.68 558.8 350 551.6C415.92 630.24 491.2 703.6 572.56 754.8L590.56 713.2C590.56 713.2 547.44 692.88 472.64 623.76C466.16 559.68 431.44 251.52 362.08 289.12Z" fill="#56693E"/>
</svg>
