<svg width="413" height="358" viewBox="0 0 413 358" fill="none" xmlns="http://www.w3.org/2000/svg">
<path d="M220.023 496.209C220.023 496.209 53.1766 400.46 83.1226 364.302C113.069 328.144 246.326 443.605 274.836 417.706C303.345 391.808 65.6577 291.054 66.2376 245.115C66.8175 199.177 150.343 232.978 237.311 293.108C324.279 353.237 374.377 323.498 337.689 288.613C301.001 253.729 125.766 181.599 154.754 132.809C183.742 84.0197 358.026 259.487 389.248 232.411C420.47 205.335 326.878 160.573 309.834 120.92C292.789 81.2678 310.683 58.7349 387.357 111.246C464.032 163.758 536.451 192.498 467.262 295.073C398.073 397.649 328.307 547.242 220.023 496.209Z" fill="#56693E"/>
</svg>
