<svg width="206" height="159" viewBox="0 0 206 159" fill="none" xmlns="http://www.w3.org/2000/svg">
<g filter="url(#filter0_b_293_1247)">
<path fill-rule="evenodd" clip-rule="evenodd" d="M80.4092 8.72735L18.7074 0.130334H18.7084C16.1661 -0.223788 13.6906 0.157132 11.4973 1.11085C11.3905 1.1573 11.2843 1.20511 11.1789 1.25426C8.79448 2.36497 6.76468 4.16052 5.37603 6.42413H5.37711C5.37739 6.42466 5.37767 6.42519 5.37794 6.42572C4.44196 7.95335 3.79822 9.69412 3.53495 11.5815L0.130325 35.9762C-0.894836 43.3246 4.23529 50.1134 11.5906 51.1377L53.8089 57.0197L53.8109 57.0199L54.2014 57.4757L54.2015 57.4758C54.4449 57.76 54.6883 58.0441 54.9321 58.3278C55.613 59.1214 56.2929 59.9139 56.9727 60.7075C57.9505 61.8493 58.9294 62.9911 59.9082 64.1329L59.9097 64.1347L59.9112 64.1364L60.0172 64.2602L60.0203 64.2638C60.2783 64.565 60.5357 64.8656 60.7939 65.1661C61.8032 66.3447 62.8137 67.5234 63.8241 68.702L63.8294 68.7082C64.6125 69.6219 65.2812 70.3954 65.9523 71.1715L65.9547 71.1743L65.9564 71.1762C66.601 71.9217 67.2479 72.6699 68.0005 73.5475C68.6784 74.3478 69.9823 73.9908 70.158 72.9568L71.0005 68C71.1143 67.2204 71.2273 66.1432 71.3403 65.0659C71.4532 63.9887 71.5662 62.9115 71.68 62.1319C71.8062 61.2754 71.9313 60.4188 72.0563 59.5623L73.2914 59.7348C80.3239 60.7143 86.8443 56.0687 88.2977 49.2347C88.3659 48.9231 88.421 48.6055 88.466 48.2835L91.8696 23.8899C92.5248 19.1916 90.6658 14.7237 87.3179 11.8436C85.4279 10.2173 83.0634 9.097 80.4092 8.72735Z" fill="#CEDFB8" fill-opacity="0.5" style="mix-blend-mode:screen"/>
<circle cx="45.5344" cy="29.7541" r="6.5" transform="rotate(0.571982 45.5344 29.7541)" fill="white"/>
<circle cx="26.5637" cy="26.5646" r="6.5" transform="rotate(0.571982 26.5637 26.5646)" fill="white"/>
<circle cx="64.5032" cy="32.9437" r="6.5" transform="rotate(0.571982 64.5032 32.9437)" fill="white"/>
</g>
<path fill-rule="evenodd" clip-rule="evenodd" d="M51.2044 30.006L169.408 13.5365H169.406C174.995 12.758 180.415 13.8337 185.044 16.294C189.087 18.4422 192.526 21.6467 194.948 25.5941H194.946C194.945 25.5951 194.945 25.5961 194.944 25.5971C196.737 28.5235 197.97 31.8582 198.475 35.4738L204.997 82.2074C206.961 96.2849 197.133 109.29 183.042 111.253L102.163 122.521L102.161 122.521C101.925 122.797 101.689 123.072 101.453 123.348L101.409 123.399C100.944 123.942 100.479 124.485 100.013 125.027C98.7084 126.547 97.406 128.065 96.1036 129.586C94.2345 131.768 92.3633 133.951 90.4921 136.134L90.4744 136.154L90.2657 136.398L90.2638 136.4C89.77 136.977 89.2775 137.552 88.7833 138.127C86.8463 140.389 84.9071 142.651 82.968 144.913L77.4185 151.388C75.1841 153.994 70.9191 152.76 70.4222 149.363L69.2391 141.275C69.0211 139.782 68.8025 138.289 68.5839 136.796C68.3653 135.302 68.1466 133.808 67.9284 132.314C67.6869 130.674 67.4474 129.034 67.2079 127.394L67.2075 127.392L67.2074 127.392L64.8403 127.722C51.3612 129.6 38.8642 120.69 36.0882 107.587C35.9596 106.997 35.8553 106.395 35.7701 105.785L29.2498 59.0537C29.0815 57.8468 28.9998 56.6477 28.9999 55.4629C29.0007 49.5435 31.0452 43.9788 34.5426 39.5506C38.5128 34.5232 44.355 30.9599 51.2044 30.006Z" fill="url(#paint0_linear_293_1247)" style="mix-blend-mode:screen"/>
<defs>
<filter id="filter0_b_293_1247" x="-16" y="-16" width="124" height="105.985" filterUnits="userSpaceOnUse" color-interpolation-filters="sRGB">
<feFlood flood-opacity="0" result="BackgroundImageFix"/>
<feGaussianBlur in="BackgroundImageFix" stdDeviation="8"/>
<feComposite in2="SourceAlpha" operator="in" result="effect1_backgroundBlur_293_1247"/>
<feBlend mode="normal" in="SourceGraphic" in2="effect1_backgroundBlur_293_1247" result="shape"/>
</filter>
<linearGradient id="paint0_linear_293_1247" x1="32.4662" y1="70.9092" x2="195.992" y2="34.2497" gradientUnits="userSpaceOnUse">
<stop stop-color="#9ABC6F"/>
<stop offset="1" stop-color="#748D55"/>
</linearGradient>
</defs>
</svg>
