<svg width="116" height="43" viewBox="0 0 116 43" fill="none" xmlns="http://www.w3.org/2000/svg">
<g clip-path="url(#clip0_438_2744)">
<path fill-rule="evenodd" clip-rule="evenodd" d="M28.8056 41.6642C28.3466 41.6642 27.9408 41.5565 27.5942 41.338C27.2477 41.1226 26.9761 40.818 26.7794 40.4271C26.5858 40.0363 26.4922 39.5839 26.4922 39.0669C26.4922 38.5499 26.589 38.0822 26.7794 37.6914C26.973 37.2974 27.2446 36.9928 27.5942 36.7774C27.9408 36.562 28.3466 36.4512 28.8056 36.4512C29.2645 36.4512 29.6735 36.5589 30.0231 36.7774C30.3697 36.9928 30.6413 37.2974 30.838 37.6914C31.0315 38.0822 31.1314 38.5407 31.1314 39.0669C31.1314 39.5932 31.0347 40.0363 30.838 40.4271C30.6444 40.818 30.3728 41.1226 30.0231 41.338C29.6766 41.5534 29.2707 41.6642 28.8056 41.6642ZM28.8056 40.9687C29.1583 40.9687 29.4487 40.8795 29.6735 40.7041C29.8983 40.5256 30.0668 40.2948 30.1761 40.0055C30.2854 39.7132 30.3416 39.4024 30.3416 39.0669C30.3416 38.7315 30.2854 38.4115 30.1761 38.1191C30.0668 37.8268 29.8983 37.5929 29.6735 37.4175C29.4487 37.2359 29.1583 37.1467 28.8056 37.1467C28.4528 37.1467 28.1718 37.2359 27.947 37.4175C27.7222 37.596 27.5537 37.8298 27.4444 38.1191C27.3351 38.4115 27.2789 38.7253 27.2789 39.0669C27.2789 39.4085 27.3351 39.7132 27.4444 40.0055C27.5537 40.2948 27.7222 40.5256 27.947 40.7041C28.1718 40.8826 28.459 40.9687 28.8056 40.9687ZM8.9859 41.6642C8.49575 41.6642 8.07117 41.5565 7.70902 41.338C7.35311 41.1226 7.07838 40.821 6.88482 40.4333C6.69125 40.0425 6.5976 39.5901 6.5976 39.0762C6.5976 38.5622 6.69126 38.1037 6.8817 37.7098C7.07214 37.3159 7.33438 37.0082 7.6778 36.7866C8.02121 36.565 8.42395 36.4543 8.886 36.4543C9.15137 36.4543 9.41361 36.4973 9.67586 36.5866C9.93811 36.6727 10.1754 36.8143 10.3908 37.0113C10.6062 37.2051 10.781 37.4636 10.909 37.7868C11.037 38.1068 11.1026 38.5038 11.1026 38.9715V39.3039H7.38925C7.4006 39.639 7.46583 39.9262 7.58726 40.1656C7.72151 40.4302 7.90882 40.6302 8.14922 40.7687C8.38961 40.9041 8.67059 40.9718 8.9859 40.9718C9.18883 40.9718 9.37615 40.9441 9.54474 40.8857C9.71332 40.8241 9.85693 40.7379 9.97869 40.621C10.1004 40.501 10.1941 40.3533 10.2565 40.1809L11.0152 40.3964C10.9371 40.6487 10.8029 40.8703 10.6125 41.0641C10.4251 41.2519 10.1941 41.4027 9.91625 41.5104C9.6384 41.615 9.32932 41.6673 8.98278 41.6673L8.9859 41.6642ZM7.56541 37.9683C7.46344 38.1773 7.40529 38.3999 7.39097 38.6361H10.3022C10.2819 38.4003 10.2323 38.1841 10.1535 37.9899C10.0474 37.7283 9.88815 37.5221 9.67274 37.3713C9.46357 37.2205 9.20132 37.1467 8.886 37.1467C8.57068 37.1467 8.30219 37.2236 8.07741 37.3775C7.85575 37.5283 7.68404 37.7252 7.56541 37.9683ZM0.890625 42.9998V40.8364H1.31209C1.41512 40.7287 1.50565 40.6118 1.58058 40.4887C1.65863 40.3656 1.72731 40.2179 1.78039 40.0486C1.83658 39.8732 1.88341 39.664 1.92088 39.4178C1.96458 39.1716 1.99893 38.8731 2.03014 38.5192L2.20498 36.5189H5.45183V40.8364H6.23856V42.9998H5.45183V41.5565H1.67736V42.9998H0.890625ZM2.2081 40.8364H4.66821V37.239H2.93864L2.80127 38.5192C2.7482 39.0454 2.68264 39.5039 2.60147 39.8978C2.52029 40.2917 2.38917 40.6056 2.2081 40.8364ZM11.8391 36.5158V41.5565L11.8359 41.5596H14.243C14.5926 41.5596 14.8892 41.5011 15.1359 41.3842C15.3825 41.2673 15.5729 41.1042 15.7072 40.9011C15.8414 40.6949 15.907 40.4702 15.907 40.2056C15.907 39.9409 15.8477 39.7163 15.729 39.5378C15.6073 39.3531 15.4605 39.2085 15.2795 39.1039C15.1046 38.9992 14.9236 38.9346 14.7362 38.9069C15.0235 38.8454 15.2576 38.7346 15.4418 38.5684C15.6291 38.4022 15.7165 38.1684 15.7165 37.8606C15.7197 37.4575 15.5573 37.1344 15.2326 36.8912C14.908 36.6451 14.474 36.5189 13.9245 36.5158H11.8391ZM14.243 40.8457H12.579V39.3039H14.243C14.5115 39.3039 14.7206 39.3778 14.8736 39.5285C15.0297 39.6763 15.1015 39.8794 15.1015 40.1409C15.1046 40.3625 15.0297 40.5348 14.8736 40.661C14.7206 40.7872 14.5115 40.8457 14.243 40.8457ZM13.9245 38.6361H12.579V37.2298H13.9245C14.2367 37.2298 14.4834 37.2913 14.6644 37.4144C14.8455 37.5344 14.9298 37.7037 14.9298 37.916C14.9329 38.1376 14.8455 38.313 14.6644 38.4422C14.4865 38.5684 14.2399 38.633 13.9245 38.6361ZM18.8024 41.6642C18.3122 41.6642 17.8876 41.5565 17.5255 41.338C17.1696 41.1226 16.8948 40.821 16.7013 40.4333C16.5077 40.0425 16.4141 39.5901 16.4141 39.0762C16.4141 38.5622 16.5077 38.1037 16.6982 37.7098C16.8886 37.3159 17.154 37.0082 17.4943 36.7866C17.8377 36.565 18.2404 36.4543 18.7025 36.4543C18.9678 36.4543 19.2301 36.4973 19.4923 36.5866C19.7546 36.6727 19.9918 36.8143 20.2073 37.0113C20.4227 37.2051 20.5975 37.4636 20.7255 37.7868C20.8535 38.1068 20.9191 38.5038 20.9191 38.9715V39.3039H17.2057C17.2171 39.639 17.2823 39.9262 17.4037 40.1656C17.538 40.4302 17.7253 40.6302 17.9657 40.7687C18.2061 40.9041 18.4871 40.9718 18.8024 40.9718C19.0053 40.9718 19.1926 40.9441 19.3612 40.8857C19.5298 40.8241 19.6734 40.7379 19.7952 40.621C19.9169 40.501 20.0106 40.3533 20.073 40.1809L20.8317 40.3964C20.7536 40.6487 20.6194 40.8703 20.4289 41.0641C20.2416 41.2519 20.0106 41.4027 19.7327 41.5104C19.4549 41.615 19.1458 41.6673 18.7992 41.6673L18.8024 41.6642ZM17.3819 37.9683C17.2799 38.1773 17.2218 38.3999 17.2074 38.6361H20.1186C20.0983 38.4003 20.0488 38.1841 19.97 37.9899C19.8638 37.7283 19.7046 37.5221 19.4892 37.3713C19.28 37.2205 19.0178 37.1467 18.7025 37.1467C18.3871 37.1467 18.1187 37.2236 17.8939 37.3775C17.6722 37.5283 17.5005 37.7252 17.3819 37.9683ZM21.1953 40.8364V41.5565V41.5596H21.4607C21.7448 41.5596 21.9789 41.5073 22.1694 41.4027C22.3598 41.295 22.5097 41.1349 22.6221 40.9257C22.7376 40.7133 22.8219 40.4518 22.8781 40.1379C22.9311 39.8209 22.9686 39.4578 22.9873 39.0454L23.0685 37.2421H24.9448V41.5596H25.7315V36.5189H22.3286L22.2381 38.7561C22.2162 39.3162 22.1787 39.747 22.1194 40.0486C22.0632 40.3502 21.9789 40.5564 21.8634 40.6703C21.7479 40.781 21.5856 40.8364 21.3795 40.8364H21.1953ZM31.8906 36.5158V41.5565H32.668V37.239H35.1187V41.5565H35.9055V36.5158H31.8906ZM39.7012 40.5102L41.4838 36.5158H41.7118H42.2238H42.4891V41.5565H41.7118V37.6867L40.0196 41.5565H39.3796L37.6875 37.6198V41.5565H36.9102V36.5158H37.213H37.6875H37.9435L39.6981 40.5102H39.7012ZM44.3575 41.338C44.7197 41.5565 45.1442 41.6642 45.6344 41.6642L45.625 41.6673C45.9685 41.6673 46.2807 41.615 46.5585 41.5104C46.8364 41.4027 47.0674 41.2519 47.2547 41.0641C47.4451 40.8703 47.5794 40.6487 47.6574 40.3964L46.8988 40.1809C46.8364 40.3533 46.7427 40.501 46.6209 40.621C46.4992 40.7379 46.3556 40.8241 46.187 40.8857C46.0184 40.9441 45.8311 40.9718 45.6282 40.9718C45.3128 40.9718 45.0319 40.9041 44.7915 40.7687C44.5511 40.6302 44.3638 40.4302 44.2295 40.1656C44.1081 39.9262 44.0429 39.639 44.0315 39.3039H47.7449V38.9715C47.7449 38.5038 47.6824 38.1068 47.5544 37.7868C47.4264 37.4636 47.2547 37.2051 47.0393 37.0113C46.8239 36.8143 46.5866 36.6727 46.3244 36.5866C46.0621 36.4973 45.7999 36.4543 45.5345 36.4543C45.0724 36.4543 44.6697 36.565 44.3263 36.7866C43.986 37.0082 43.7175 37.3159 43.5302 37.7098C43.3397 38.1037 43.2461 38.5622 43.2461 39.0762C43.2461 39.5901 43.3429 40.0425 43.5333 40.4333C43.7269 40.821 44.0016 41.1226 44.3575 41.338ZM44.0332 38.6361C44.0475 38.3999 44.1057 38.1773 44.2077 37.9683C44.3263 37.7252 44.498 37.5283 44.7197 37.3775C44.9444 37.2236 45.2129 37.1467 45.5283 37.1467C45.8436 37.1467 46.1058 37.2205 46.315 37.3713C46.5304 37.5221 46.6896 37.7283 46.7958 37.9899C46.8746 38.1841 46.9241 38.4003 46.9444 38.6361H44.0332ZM49.2656 39.3993H51.7163V41.5565H52.5031V36.5158H51.7163V38.6792H49.2656V36.5158H48.4882V41.5565H49.2656V39.3993ZM52.8125 36.5189V37.239H54.4952V41.5565H55.282V37.239H56.9554V36.5189H52.8125Z" fill="#616161"/>
<path fill-rule="evenodd" clip-rule="evenodd" d="M107.028 0C107.035 0.461605 107.035 0.917054 107.035 1.36327V1.36384C107.041 6.84119 107.044 9.85987 116.001 9.85987V11.7063C112.326 11.7063 109.941 11.9648 108.614 13.2911C107.334 14.5682 106.813 17.0332 106.869 21.5323V21.5415L104.996 21.5662C104.99 21.1046 104.99 20.6491 104.99 20.2029V20.2023C104.983 14.725 104.98 11.7063 96.0234 11.7063V10.7831V9.85987C99.698 9.85987 102.083 9.60137 103.41 8.27503C104.69 6.99792 105.211 4.53296 105.155 0.033851V0.0246189L106.092 0.0123095L107.028 0ZM47.2686 8.49352L45.9511 6.51785L45.948 6.51477C45.6077 6.78558 45.18 6.95791 44.6742 7.03485C44.1685 7.10255 43.5784 7.13024 42.9041 7.12101C42.2297 7.11178 41.4648 7.11793 40.6063 7.1364C37.9526 7.19487 35.9577 8.15193 34.6215 10.0076C33.2853 11.8632 32.6109 14.639 32.6016 18.3318V19.9044C32.6141 22.8679 33.304 25.1174 34.6808 26.6561C36.0545 28.1856 37.8902 28.9549 40.1817 28.9641C41.7021 28.9549 43.0258 28.6226 44.1466 27.9701C45.2799 27.3177 46.1509 26.3792 46.7659 25.1574C47.381 23.9357 47.6838 22.4894 47.6744 20.8153C47.6838 19.172 47.3935 17.7779 46.7972 16.6331C46.204 15.4884 45.3923 14.6236 44.3683 14.0358C43.3443 13.4388 42.1735 13.1403 40.8561 13.1403C39.6666 13.1403 38.5926 13.3927 37.6373 13.8912C36.6913 14.3836 35.9608 15.1283 35.4426 16.1285H35.2365C35.352 14.7529 35.6174 13.6142 36.0264 12.7095C36.4385 11.8048 37.016 11.1216 37.7684 10.66C38.5302 10.1891 39.5011 9.9368 40.6812 9.9091C41.7271 9.87217 42.6543 9.82909 43.4629 9.77985C44.2715 9.73062 44.9895 9.61368 45.6139 9.43211C46.2383 9.24747 46.7909 8.93666 47.2686 8.49352ZM42.4826 25.6621C41.8488 26.1022 41.084 26.3299 40.1848 26.3391C38.8268 26.3268 37.7591 25.8283 36.9786 24.8374C36.2074 23.8465 35.8234 22.5263 35.8234 20.8707C35.8422 20.0521 35.9514 19.3258 36.145 18.6919C36.3511 18.058 36.6383 17.5256 37.0098 17.0917C37.3813 16.6485 37.8277 16.3131 38.3554 16.0823C38.883 15.8546 39.4793 15.7376 40.1411 15.7376C41.0465 15.7376 41.8239 15.9407 42.467 16.3439C43.1101 16.747 43.6096 17.3348 43.9593 18.1041C44.3121 18.8642 44.4807 19.7874 44.4713 20.8738C44.4807 21.9878 44.3121 22.954 43.9593 23.7726C43.6096 24.5912 43.1164 25.219 42.4826 25.6621ZM7.62386 28.9642C6.0535 28.9642 4.69545 28.6072 3.55593 27.8963C2.41328 27.1854 1.53601 26.2038 0.920982 24.9544C0.305953 23.7049 0 22.2709 0 20.6553C0 19.0397 0.312197 17.5625 0.936592 16.3131C1.57035 15.0545 2.45387 14.0728 3.58402 13.3712C4.72667 12.6603 6.06287 12.3033 7.59264 12.3033C8.84143 12.3033 9.94973 12.528 10.9144 12.9803C11.8885 13.4235 12.6752 14.0513 13.2715 14.8698C13.8772 15.6884 14.2331 16.6393 14.3392 17.7256H11.236C11.1298 17.2148 10.9175 16.7501 10.6053 16.3254C10.3025 15.9008 9.9029 15.5653 9.4065 15.3161C8.91011 15.0668 8.32006 14.9406 7.63634 14.9406C6.7497 14.9406 5.97233 15.1714 5.31047 15.633C4.65798 16.0854 4.14598 16.7347 3.77446 17.581C3.40295 18.4273 3.21875 19.4274 3.21875 20.5814C3.21875 21.7354 3.39983 22.7602 3.75885 23.6249C4.121 24.4897 4.63301 25.1575 5.29486 25.6314C5.96921 26.093 6.7497 26.3238 7.63634 26.3238C8.52298 26.3238 9.3347 26.0745 9.97782 25.5729C10.6303 25.0744 11.0518 24.3912 11.236 23.5234H14.3392C14.2331 24.5728 13.8897 25.5052 13.3152 26.3207C12.7408 27.1393 11.9696 27.7825 11.0018 28.2533C10.0371 28.7241 8.91011 28.9611 7.62073 28.9611L7.62386 28.9642ZM19.6845 24.2158L26.8994 12.5033H30.3242V28.6318H27.2209V16.904L20.0342 28.6318H16.5938V12.5033H19.6814V24.2158H19.6845ZM53.0798 24.2158L60.2947 12.5033H63.7195V28.6318H60.6162V16.904L53.4326 28.6318H49.9922V12.5033H53.0798V24.2158ZM66.7578 12.5033V34.6604L66.7609 34.6573H69.9204V26.1176H70.0952C70.2888 26.4561 70.5635 26.8439 70.9132 27.287C71.2753 27.7301 71.7686 28.121 72.393 28.4564C73.0267 28.7826 73.8353 28.9457 74.8219 28.9457C76.1487 28.9457 77.3257 28.6164 78.3497 27.9517C79.3831 27.2778 80.1917 26.3207 80.7786 25.0805C81.3624 23.8311 81.6559 22.3601 81.6559 20.6091C81.6559 18.8581 81.3593 17.3625 80.763 16.1223C80.1667 14.8821 79.3519 13.9343 78.3185 13.2819C77.2945 12.6264 76.1237 12.3002 74.8063 12.3002C73.801 12.3002 72.9861 12.4695 72.3618 12.8049C71.7374 13.1311 71.2472 13.5158 70.8976 13.9589C70.5573 14.4021 70.2856 14.7929 70.0921 15.1283H69.8298V12.5033H66.7578ZM76.5015 25.5298C75.8677 26.0314 75.0779 26.2807 74.1319 26.2807H74.1257C73.2203 26.2807 72.4429 26.0407 71.7998 25.5606C71.166 25.0774 70.6821 24.4097 70.3512 23.5542C70.0203 22.6986 69.8548 21.7047 69.8548 20.5814C69.8548 19.4582 70.0172 18.4765 70.3387 17.6395C70.6696 16.7901 71.1535 16.1377 71.7873 15.6761C72.4211 15.2053 73.1735 14.9683 74.1288 14.9683C75.0841 14.9683 75.8802 15.2145 76.514 15.7038C77.1477 16.1962 77.6254 16.864 77.947 17.7102C78.2685 18.5565 78.4309 19.5043 78.4309 20.5814C78.4309 21.6585 78.2654 22.6309 77.9345 23.4957C77.6129 24.3512 77.1353 25.0313 76.5015 25.5298ZM87.0562 25.9176V20.7814H91.1085C92.0139 20.7691 92.76 21.0122 93.347 21.5015C93.9339 21.9939 94.2305 22.6279 94.2399 23.4064C94.2305 24.1481 93.9339 24.7543 93.347 25.2251C92.7632 25.6868 92.017 25.9176 91.1085 25.9176H87.0562ZM87.0562 18.0734H91.1116C93.1035 18.0641 94.6332 18.5503 95.7072 19.5289C96.7905 20.5106 97.3369 21.7754 97.3462 23.3233C97.3462 24.3327 97.1027 25.2375 96.6157 26.0345C96.1287 26.8315 95.42 27.4685 94.4927 27.9394C93.5655 28.401 92.4385 28.6318 91.1116 28.6318H83.9686V12.5033H87.0562V18.0734Z" fill="#56693E"/>
</g>
<defs>
<clipPath id="clip0_438_2744">
<rect width="116" height="43" fill="white"/>
</clipPath>
</defs>
</svg>

