<svg width="42" height="42" viewBox="0 0 42 42" fill="none" xmlns="http://www.w3.org/2000/svg">
<circle cx="21" cy="21" r="21" fill="#363636"/>
<g clip-path="url(#clip0_641_3031)">
<path d="M32.3694 18.2442C31.9005 18.1483 31.4744 17.8679 31.2649 17.4376C30.5308 15.9296 29.4968 14.5973 28.2285 13.5311C27.2035 12.6695 26.0474 12 24.8121 11.5478C24.0331 11.2627 23.6249 10.3387 24.0522 9.62763L24.3456 9.1392C24.6259 8.67262 24.4864 8.06786 24.0301 7.77116C23.5503 7.45916 22.9073 7.60742 22.6126 8.09805L21.2931 10.2943C21.0772 10.6537 20.6891 10.8693 20.2708 10.8969C18.2605 11.0296 16.3147 11.7095 14.6307 12.8741C12.9713 14.0217 11.6306 15.5954 10.7349 17.4371C10.5255 17.8676 10.0993 18.1483 9.63023 18.2443C8.74572 18.4254 7.92735 18.8803 7.28753 19.5587C6.4623 20.4337 6 21.6105 6 22.8364C6 24.0622 6.4623 25.2391 7.28753 26.1141C7.92736 26.7925 8.74575 27.2474 9.63027 27.4284C10.0993 27.5244 10.5256 27.8051 10.735 28.2356C11.6349 30.0858 12.9838 31.6654 14.6535 32.8143C16.5359 34.1096 18.743 34.8002 21 34.8002C23.257 34.8002 25.4641 34.1096 27.3465 32.8143C29.0162 31.6654 30.3651 30.0858 31.265 28.2356C31.4744 27.8051 31.9007 27.5244 32.3697 27.4284C33.2543 27.2474 34.0726 26.7925 34.7125 26.1141C35.5377 25.2391 36 24.0622 36 22.8364C36 21.6105 35.5377 20.4337 34.7125 19.5587C34.0726 18.8802 33.254 18.4252 32.3694 18.2442ZM33.2839 24.6576C32.8265 25.1443 32.2031 25.4237 31.5489 25.4353L31.0421 25.4453C30.5635 25.4548 30.1363 25.7479 29.9551 26.191L29.7465 26.7011C29.0169 28.4864 27.7987 30.0089 26.2434 31.0792C24.6882 32.1494 22.8647 32.72 21 32.72C19.1353 32.72 17.3119 32.1494 15.7566 31.0792C14.2014 30.0089 12.9831 28.4864 12.2536 26.7011L12.0449 26.1909C11.8638 25.7478 11.4365 25.4548 10.9579 25.4453L10.4511 25.4353C9.79666 25.4226 9.17314 25.1432 8.71464 24.6571C8.25613 24.1711 7.99926 23.5174 7.99926 22.8364C7.99926 22.1554 8.25613 21.5016 8.71464 21.0156C9.17314 20.5296 9.79666 20.2502 10.4511 20.2374L10.9579 20.2274C11.4365 20.2179 11.8638 19.9249 12.0449 19.4818L12.2536 18.9716C12.9832 17.1864 14.2014 15.6639 15.7566 14.5937C17.3119 13.5234 19.1354 12.9528 21 12.9528C22.8647 12.9528 24.6882 13.5234 26.2434 14.5937C27.7986 15.6639 29.0169 17.1864 29.7465 18.9716L29.9551 19.4818C30.1363 19.9249 30.5635 20.2179 31.0421 20.2274L31.5489 20.2374C32.037 20.247 32.5117 20.4052 32.9144 20.6924C33.3171 20.9796 33.6301 21.3833 33.8146 21.8535C33.9992 22.3237 34.0473 22.8399 33.953 23.3383C33.8586 23.8366 33.626 24.2953 33.2839 24.6576Z" fill="#56693E" stroke="#56693E" stroke-width="0.1"/>
<path d="M15.5996 21.6004C15.5996 20.9376 16.1369 20.4004 16.7996 20.4004H16.8542C17.5169 20.4004 18.0542 20.9376 18.0542 21.6004V21.7267C18.0542 22.3894 17.5169 22.9267 16.8542 22.9267H16.7996C16.1369 22.9267 15.5996 22.3894 15.5996 21.7267V21.6004ZM23.9451 21.6004C23.9451 20.9376 24.4823 20.4004 25.1451 20.4004H25.1996C25.8624 20.4004 26.3996 20.9376 26.3996 21.6004V21.7267C26.3996 22.3894 25.8624 22.9267 25.1996 22.9267H25.1451C24.4823 22.9267 23.9451 22.3894 23.9451 21.7267V21.6004ZM20.9996 30.0004C21.6443 30.0004 22.2826 29.8697 22.8782 29.6158C23.4738 29.3619 24.015 28.9897 24.4709 28.5205C24.9267 28.0513 25.2883 27.4943 25.535 26.8813C25.6324 26.6393 25.7111 26.3905 25.7708 26.1371C25.9226 25.492 25.3714 24.9478 24.7087 24.9478H17.2905C16.6278 24.9478 16.0767 25.492 16.2285 26.1371C16.2881 26.3905 16.3668 26.6393 16.4642 26.8813C16.7109 27.4943 17.0725 28.0513 17.5284 28.5205C18.449 29.4681 19.6976 30.0004 20.9996 30.0004Z" fill="#56693E"/>
</g>
<defs>
<clipPath id="clip0_641_3031">
<rect width="30" height="27.6" fill="white" transform="translate(6 7.2002)"/>
</clipPath>
</defs>
</svg>
