<svg width="42" height="42" viewBox="0 0 42 42" fill="none" xmlns="http://www.w3.org/2000/svg">
<circle cx="21" cy="21" r="21" fill="#363636"/>
<rect width="28.8" height="28.8" transform="translate(6 7.2002)" fill="#363636"/>
<path d="M20.3997 28.8004C24.3762 28.8004 27.5997 25.5768 27.5997 21.6004C27.5997 17.6239 24.3762 14.4004 20.3997 14.4004C16.4233 14.4004 13.1997 17.6239 13.1997 21.6004C13.1997 25.5768 16.4233 28.8004 20.3997 28.8004Z" stroke="white" stroke-width="2.4" stroke-linecap="round" stroke-linejoin="round"/>
<path d="M20.4 14.4006C21.7255 14.4006 22.8 13.3261 22.8 12.0006C22.8 10.6751 21.7255 9.60059 20.4 9.60059C19.0745 9.60059 18 10.6751 18 12.0006C18 13.3261 19.0745 14.4006 20.4 14.4006Z" stroke="white" stroke-width="2.4" stroke-linecap="round" stroke-linejoin="round"/>
<path d="M28.7999 19.2004C30.1254 19.2004 31.1999 18.1259 31.1999 16.8004C31.1999 15.4749 30.1254 14.4004 28.7999 14.4004C27.4744 14.4004 26.3999 15.4749 26.3999 16.8004C26.3999 18.1259 27.4744 19.2004 28.7999 19.2004Z" stroke="white" stroke-width="2.4" stroke-linecap="round" stroke-linejoin="round"/>
<path d="M11.9996 19.2004C13.3251 19.2004 14.3996 18.1259 14.3996 16.8004C14.3996 15.4749 13.3251 14.4004 11.9996 14.4004C10.6741 14.4004 9.59961 15.4749 9.59961 16.8004C9.59961 18.1259 10.6741 19.2004 11.9996 19.2004Z" stroke="white" stroke-width="2.4" stroke-linecap="round" stroke-linejoin="round"/>
<path d="M11.9996 28.801C13.3251 28.801 14.3996 27.7265 14.3996 26.401C14.3996 25.0755 13.3251 24.001 11.9996 24.001C10.6741 24.001 9.59961 25.0755 9.59961 26.401C9.59961 27.7265 10.6741 28.801 11.9996 28.801Z" stroke="white" stroke-width="2.4" stroke-linecap="round" stroke-linejoin="round"/>
<path d="M28.7999 28.801C30.1254 28.801 31.1999 27.7265 31.1999 26.401C31.1999 25.0755 30.1254 24.001 28.7999 24.001C27.4744 24.001 26.3999 25.0755 26.3999 26.401C26.3999 27.7265 27.4744 28.801 28.7999 28.801Z" stroke="white" stroke-width="2.4" stroke-linecap="round" stroke-linejoin="round"/>
<path d="M15.5996 33.6006L20.3996 21.6006L25.1996 33.6006" stroke="white" stroke-width="2.4" stroke-linecap="round" stroke-linejoin="round"/>
</svg>
