<svg width="42" height="42" viewBox="0 0 42 42" fill="none" xmlns="http://www.w3.org/2000/svg">
<circle cx="21" cy="21" r="21" fill="#363636"/>
<path d="M16.3996 31.4008C17.3937 31.4008 18.1996 30.5949 18.1996 29.6008C18.1996 28.6067 17.3937 27.8008 16.3996 27.8008C15.4055 27.8008 14.5996 28.6067 14.5996 29.6008C14.5996 30.5949 15.4055 31.4008 16.3996 31.4008Z" fill="#56693E"/>
<path d="M27.1999 31.4008C28.194 31.4008 28.9999 30.5949 28.9999 29.6008C28.9999 28.6067 28.194 27.8008 27.1999 27.8008C26.2058 27.8008 25.3999 28.6067 25.3999 29.6008C25.3999 30.5949 26.2058 31.4008 27.1999 31.4008Z" fill="#56693E"/>
<path d="M11 13.4004H13.4L14.12 17.0004M14.12 17.0004L15.8 25.4004H27.8L30.2 17.0004H14.12Z" stroke="#56693E" stroke-width="2.4" stroke-linecap="round" stroke-linejoin="round"/>
</svg>
