<svg width="42" height="42" viewBox="0 0 42 42" fill="none" xmlns="http://www.w3.org/2000/svg">
<circle cx="21" cy="21" r="21" fill="#363636"/>
<path d="M28.5789 18H13.4211C12.6362 18 12 18.6199 12 19.3846V28.6154C12 29.3801 12.6362 30 13.4211 30H28.5789C29.3638 30 30 29.3801 30 28.6154V19.3846C30 18.6199 29.3638 18 28.5789 18Z" stroke="#56693E" stroke-width="2.4" stroke-linejoin="round"/>
<path d="M18.8998 14H23.0998V12H18.8998V14ZM23.5198 14.5V18H25.1998V14.5H23.5198ZM18.4798 18V14.5H16.7998V18H18.4798ZM23.0998 14C23.2112 14 23.318 14.0527 23.3968 14.1464C23.4756 14.2402 23.5198 14.3674 23.5198 14.5H25.1998C25.1998 13.837 24.9786 13.2011 24.5847 12.7322C24.1909 12.2634 23.6568 12 23.0998 12V14ZM18.8998 12C18.3428 12 17.8087 12.2634 17.4149 12.7322C17.0211 13.2011 16.7998 13.837 16.7998 14.5H18.4798C18.4798 14.3674 18.5241 14.2402 18.6028 14.1464C18.6816 14.0527 18.7884 14 18.8998 14V12Z" fill="#56693E"/>
<path d="M18 23.9996H24M21 21.5996V26.3996" stroke="#56693E" stroke-width="2.4" stroke-linecap="round" stroke-linejoin="round"/>
</svg>
